<svg width="30" height="30" viewBox="0 0 30 30" fill="none" xmlns="http://www.w3.org/2000/svg">
<path d="M14.9741 0C7.08047 0 0.614062 6.07591 0 13.7968L8.05359 17.1209C8.75683 16.6393 9.592 16.3818 10.4473 16.3829C10.5272 16.3829 10.6062 16.3851 10.684 16.3894L14.2659 11.2063V11.1338C14.2659 8.015 16.8077 5.47703 19.9323 5.47703C23.0568 5.47703 25.5986 8.015 25.5986 11.1338C25.5986 14.2524 23.0568 16.7914 19.9323 16.7914C19.8889 16.7914 19.8468 16.7904 19.8036 16.7893L14.6951 20.4267C14.6984 20.4942 14.7005 20.5615 14.7005 20.6279C14.7005 22.97 12.7923 24.8749 10.4473 24.8749C8.38875 24.8749 6.66645 23.4075 6.27727 21.4653L0.516797 19.0877C2.30074 25.3839 8.09566 30 14.9741 30C23.2731 30 30 23.2835 30 15C30 6.71559 23.2731 0 14.9741 0ZM9.41625 22.76L7.57066 21.9986C7.89727 22.6787 8.46375 23.2477 9.21516 23.5601C10.839 24.2359 12.7116 23.467 13.3884 21.8445C13.7161 21.0643 13.7181 20.1876 13.3938 19.406C13.0695 18.6189 12.4564 18.0049 11.6705 17.6777C10.8888 17.3536 10.052 17.3654 9.31676 17.6424L11.224 18.4296C12.4219 18.928 12.9884 20.3012 12.4889 21.497C11.9905 22.6926 10.6141 23.2584 9.41625 22.76ZM23.7081 11.1338C23.7081 9.05578 22.0139 7.36384 19.9327 7.36384C17.8504 7.36384 16.1562 9.05578 16.1562 11.1338C16.1562 13.2118 17.8504 14.9027 19.9327 14.9027C22.0139 14.9027 23.7081 13.2118 23.7081 11.1338ZM17.1022 11.1274C17.1022 9.56377 18.3725 8.29647 19.9382 8.29647C21.5047 8.29647 22.775 9.56377 22.775 11.1274C22.775 12.691 21.5047 13.9584 19.938 13.9584C18.3725 13.9584 17.1021 12.691 17.1021 11.1275L17.1022 11.1274Z" fill="white"/>
</svg>
