<svg width="32" height="26" viewBox="0 0 32 26" fill="none" xmlns="http://www.w3.org/2000/svg">
<path d="M32 3.11498C30.7973 3.63573 29.5255 3.97997 28.224 4.13701C29.5971 3.3183 30.626 2.03031 31.12 0.511977C29.8297 1.2786 28.4172 1.81874 26.944 2.10891C25.9593 1.04307 24.6479 0.333594 23.2157 0.0917464C21.7834 -0.150101 20.3113 0.0893622 19.0301 0.772579C17.7489 1.4558 16.7311 2.54412 16.1364 3.86687C15.5417 5.18962 15.4037 6.67196 15.744 8.08143C13.1351 7.94973 10.5831 7.27171 8.25385 6.09143C5.92459 4.91116 3.87015 3.25501 2.224 1.2306C1.64662 2.23693 1.34323 3.37659 1.344 4.53624C1.34195 5.61319 1.60675 6.67392 2.11481 7.62401C2.62287 8.5741 3.35843 9.38407 4.256 9.98178C3.21276 9.95345 2.19182 9.67405 1.28 9.16734V9.24719C1.28782 10.7561 1.81759 12.216 2.7797 13.38C3.74182 14.544 5.07721 15.3405 6.56 15.6349C5.98921 15.8083 5.3966 15.8997 4.8 15.9064C4.38702 15.9016 3.97508 15.8642 3.568 15.7946C3.99026 17.0926 4.8074 18.227 5.90572 19.0398C7.00404 19.8527 8.32892 20.3036 9.696 20.3299C7.38752 22.1428 4.53741 23.1323 1.6 23.1405C1.06518 23.1422 0.530777 23.1102 0 23.0447C2.99909 24.9774 6.4941 26.0034 10.064 25.999C12.5275 26.0245 14.9714 25.5599 17.253 24.6322C19.5346 23.7044 21.608 22.3323 23.3523 20.5958C25.0966 18.8593 26.4767 16.7933 27.4121 14.5185C28.3474 12.2437 28.8193 9.80568 28.8 7.34684C28.8 7.07536 28.8 6.78792 28.8 6.50047C30.0555 5.56596 31.1384 4.42035 32 3.11498V3.11498Z" fill="white"/>
</svg>
